<svg width="96" height="96" version="1.1" xmlns="http://www.w3.org/2000/svg" desc="Created with imagetracer.js version 1.2.6" ><path fill="rgb(0,0,0)" stroke="rgb(0,0,0)" stroke-width="1" opacity="0" d="M 0 0 L 96 0 L 96 96 L 0 96 L 0 0 Z M 32 20 L 29 21 L 26 28 L 22 27 L 20 30 L 14 31 L 13 37 L 14 38 L 12 37 L 7 37 L 7 44 L 12 49 L 11 50 Q 3 48 6 56 L 9 59 L 8 60 L 8 71 L 10 72 L 81 72 L 85 70 L 88 65 Q 87 62 90 63 Q 91 57 88 55 Q 87 50 90 51 Q 92 46 88 47 Q 84 45 89 43 L 89 37 L 81 37 Q 76 35 76 29 L 69 28 L 68 24 L 64 25 Q 58 25 57 22 L 53 23 L 50 22 Q 51 19 45 20 L 42 24 Q 42 26 38 26 L 36 23 Q 35 20 32 20 Z " /><path fill="rgb(247,114,5)" stroke="rgb(247,114,5)" stroke-width="1" opacity="0.9568627450980393" d="M 32.5 26 L 39 30.5 Q 40.4 35.1 34.5 33 L 27.5 36 Q 25.3 35.3 26 31.5 L 32.5 26 Z " /><path fill="rgb(247,114,5)" stroke="rgb(247,114,5)" stroke-width="1" opacity="0.9568627450980393" d="M 68.5 32 L 76 37.5 Q 75.6 43.1 71.5 45 L 63 37.5 L 66.5 33 L 68.5 32 Z " /><path fill="rgb(247,114,5)" stroke="rgb(247,114,5)" stroke-width="1" opacity="0.9568627450980393" d="M 25.5 50 L 28 51.5 L 26.5 54 L 24 52.5 L 25.5 50 Z " /><path fill="rgb(247,114,5)" stroke="rgb(247,114,5)" stroke-width="1" opacity="0.9568627450980393" d="M 21.5 56 L 24 57.5 L 22.5 60 L 20 58.5 L 21.5 56 Z " /><path fill="rgb(247,114,5)" stroke="rgb(247,114,5)" stroke-width="1" opacity="0.9568627450980393" d="M 29.5 56 L 32 57.5 L 30.5 60 L 28 58.5 L 29.5 56 Z " /><path fill="rgb(140,194,73)" stroke="rgb(140,194,73)" stroke-width="1" opacity="0.8784313725490196" d="M 31.5 20 Q 35.5 19.5 36 22.5 L 37 28 L 41 26.5 Q 41.3 21.8 44.5 20 Q 50.6 18.8 50 21.5 L 52.5 23 L 56.5 22 Q 59.3 23.3 57 24.5 L 55.5 28 Q 53.8 24.3 46.5 26 Q 43 27.3 44 32 L 39 32 L 39 30.5 Q 37 26.5 31.5 26 L 26 31.5 L 26 34.5 Q 28.8 36.2 24.5 38 L 18.5 36 L 13 40.5 L 12 44.5 L 14 48.5 L 8.5 58 Q 4.5 56.3 6 50 L 11.5 50 L 12 48.5 Q 5.2 46.4 7 37 L 13.5 38 L 13 36.5 L 14 31 L 20 30 L 21.5 27 L 25.5 28 L 29 21 L 31.5 20 Z " /><path fill="rgb(140,194,73)" stroke="rgb(140,194,73)" stroke-width="1" opacity="0.8784313725490196" d="M 64.5 24 Q 68.3 23.3 69 25.5 L 68 30 L 76 29 L 77 33 L 73.5 35 L 67.5 32 L 62.5 37 L 61.5 36 L 56 33.5 L 56.5 29 L 58.5 29 L 63 26.5 L 64.5 24 Z " /><path fill="rgb(140,194,73)" stroke="rgb(140,194,73)" stroke-width="1" opacity="0.8784313725490196" d="M 80.5 37 L 89 37 L 89 42.5 L 86 44 L 87.5 47 Q 92.1 45.8 90 51 L 86 52 L 87.5 55 Q 90.1 54.2 89 57.5 L 90 63 L 85.5 61 L 80 65 L 79 58 Q 82.8 58.8 84 55.5 Q 85.8 47.8 81.5 46 Q 75.3 44.2 73.5 47 L 72 44.5 Q 76.8 43.1 76 38 L 80.5 37 Z " /><path fill="rgb(125,92,70)" stroke="rgb(125,92,70)" stroke-width="1" opacity="1" d="M 46.5 26 Q 54.2 24.2 56 28.5 Q 57.3 34.6 54.5 34 Q 50.6 31.1 44 32 Q 43 27.3 46.5 26 Z " /><path fill="rgb(125,92,70)" stroke="rgb(125,92,70)" stroke-width="1" opacity="1" d="M 18.5 36 Q 22.5 35.5 23 38.5 L 18 42 L 14.5 47 Q 11.5 46.5 12 42.5 L 16.5 37 L 18.5 36 Z " /><path fill="rgb(125,92,70)" stroke="rgb(125,92,70)" stroke-width="1" opacity="1" d="M 74 46 L 81.5 46 L 84 48.5 Q 85.8 56.3 81.5 58 L 78 56.5 L 74 46 Z " /><path fill="rgb(254,193,7)" stroke="rgb(254,193,7)" stroke-width="1" opacity="0.9921568627450981" d="M 57.5 24 L 63 25.5 L 60.5 26 L 57.5 25 L 57.5 24 Z " /><path fill="rgb(254,193,7)" stroke="rgb(254,193,7)" stroke-width="1" opacity="0.9921568627450981" d="M 40.5 25 L 41 27 L 37.5 28 L 38.5 26 L 40.5 25 Z " /><path fill="rgb(254,193,7)" stroke="rgb(254,193,7)" stroke-width="1" opacity="0.9921568627450981" d="M 68.5 27 L 72 29.5 L 70.5 30 L 68 29 L 68.5 27 Z " /><path fill="rgb(254,193,7)" stroke="rgb(254,193,7)" stroke-width="1" opacity="0.9921568627450981" d="M 75.5 33 L 80 36.5 L 79.5 38 L 76.5 34 L 75.5 33 Z " /><path fill="rgb(254,193,7)" stroke="rgb(254,193,7)" stroke-width="1" opacity="0.9921568627450981" d="M 87.5 52 L 88 54.5 L 87 54.5 L 87.5 52 Z " /><path fill="rgb(254,193,7)" stroke="rgb(254,193,7)" stroke-width="1" opacity="0.9921568627450981" d="M 9.5 57 L 10 58.5 L 8.5 66 L 8 59.5 L 9.5 57 Z " /><path fill="rgb(254,193,7)" stroke="rgb(254,193,7)" stroke-width="1" opacity="0.9921568627450981" d="M 87.5 62 L 88 64.5 L 84.5 70 L 77.5 72 L 77.5 71 Q 83.7 71.7 85 67.5 Q 83.9 64.2 86.5 65 L 87.5 62 Z " /><path fill="rgb(254,193,7)" stroke="rgb(254,193,7)" stroke-width="1" opacity="0.9921568627450981" d="M 8.5 68 L 9 71 L 12 71.5 L 9.5 72 Q 7 71 8.5 68 Z " /><path fill="rgb(255,193,7)" stroke="rgb(255,193,7)" stroke-width="1" opacity="1" d="M 57.5 25 L 63 26.5 L 57.5 30 L 56 26.5 L 57.5 25 Z " /><path fill="rgb(255,193,7)" stroke="rgb(255,193,7)" stroke-width="1" opacity="1" d="M 39.5 32 L 48.5 32 L 59.5 35 L 74 47.5 Q 79.2 54.4 80 65 L 87 61 L 86 63.5 L 86.5 65 Q 83.9 64.2 85 67.5 L 82.5 70 L 76.5 72 L 12.5 72 L 9 71 L 8 66.5 L 9 65.5 L 10 54.5 L 12 50.5 L 23.5 38 Q 30 33.5 39.5 32 Z M 26 50 L 24 53 L 27 54 L 28 52 L 26 50 Z M 22 56 L 20 59 L 23 60 L 24 58 L 22 56 Z M 30 56 L 28 59 L 31 60 L 32 58 L 30 56 Z " /><path fill="rgb(255,193,7)" stroke="rgb(255,193,7)" stroke-width="1" opacity="1" d="M 74 34 Q 77.8 33.3 79 36.5 Q 79.8 39.1 76.5 38 L 74 34 Z " /></svg>